<svg version="1.0" preserveAspectRatio="xMidYMid meet" viewBox="118.35000000000002 165.59999602560003 45.703125 46.453123885125" zoomAndPan="magnify" xmlns:xlink="http://www.w3.org/1999/xlink" xmlns="http://www.w3.org/2000/svg" style="max-height: 500px" width="45.703125" height="46.453123885125"><defs><g/><clipPath id="47dffe76d2"><path clip-rule="nonzero" d="M 143 166.285156 L 154 166.285156 L 154 179 L 143 179 Z M 143 166.285156"/></clipPath></defs><path fill-rule="nonzero" fill-opacity="1" d="M 148.132812 200.246094 C 147.390625 200.703125 146.609375 201.082031 145.792969 201.386719 C 144.972656 201.691406 144.132812 201.914062 143.273438 202.054688 C 142.410156 202.191406 141.542969 202.246094 140.667969 202.21875 C 139.796875 202.1875 138.933594 202.074219 138.082031 201.878906 C 137.234375 201.679688 136.410156 201.402344 135.613281 201.042969 C 134.820312 200.6875 134.066406 200.253906 133.359375 199.75 C 132.648438 199.246094 131.996094 198.675781 131.398438 198.042969 C 130.804688 197.414062 130.273438 196.730469 129.816406 195.992188 L 123.339844 199.976562 C 123.703125 200.550781 124.089844 201.109375 124.507812 201.648438 C 124.921875 202.1875 125.367188 202.703125 125.832031 203.199219 C 126.300781 203.695312 126.792969 204.167969 127.304688 204.613281 C 127.820312 205.0625 128.355469 205.484375 128.914062 205.878906 C 129.46875 206.277344 130.042969 206.644531 130.636719 206.984375 C 131.230469 207.324219 131.835938 207.632812 132.460938 207.914062 C 133.085938 208.195312 133.722656 208.445312 134.371094 208.664062 C 135.019531 208.882812 135.675781 209.070312 136.34375 209.226562 C 137.007812 209.378906 137.683594 209.503906 138.363281 209.589844 C 139.039062 209.679688 139.722656 209.738281 140.40625 209.761719 C 141.09375 209.785156 141.777344 209.773438 142.460938 209.730469 C 143.144531 209.6875 143.824219 209.609375 144.5 209.5 C 145.175781 209.390625 145.84375 209.25 146.507812 209.074219 C 147.167969 208.898438 147.820312 208.695312 148.460938 208.457031 C 149.105469 208.21875 149.730469 207.949219 150.347656 207.648438 C 150.960938 207.351562 151.5625 207.023438 152.144531 206.664062 Z M 148.132812 200.246094" fill="#ef6843"/><path fill-rule="nonzero" fill-opacity="1" d="M 145.902344 168.90625 L 144.160156 176.246094 C 145.441406 176.542969 146.648438 177.019531 147.785156 177.671875 C 148.921875 178.324219 149.941406 179.128906 150.835938 180.078125 C 151.734375 181.03125 152.472656 182.089844 153.050781 183.257812 C 153.632812 184.425781 154.027344 185.652344 154.238281 186.933594 C 154.453125 188.21875 154.472656 189.507812 154.296875 190.796875 C 154.125 192.085938 153.769531 193.324219 153.222656 194.507812 C 152.679688 195.691406 151.976562 196.773438 151.109375 197.75 C 150.242188 198.730469 149.25 199.5625 148.132812 200.246094 L 152.144531 206.65625 C 153.015625 206.121094 153.847656 205.523438 154.632812 204.863281 C 155.414062 204.207031 156.148438 203.496094 156.828125 202.730469 C 157.503906 201.96875 158.125 201.15625 158.683594 200.300781 C 159.238281 199.449219 159.730469 198.558594 160.15625 197.628906 C 160.582031 196.703125 160.9375 195.75 161.222656 194.773438 C 161.503906 193.792969 161.714844 192.800781 161.851562 191.792969 C 161.984375 190.78125 162.046875 189.769531 162.03125 188.75 C 162.015625 187.734375 161.921875 186.722656 161.757812 185.71875 C 161.589844 184.714844 161.351562 183.726562 161.039062 182.757812 C 160.726562 181.789062 160.34375 180.847656 159.890625 179.933594 C 159.4375 179.019531 158.917969 178.144531 158.332031 177.304688 C 157.75 176.46875 157.105469 175.675781 156.40625 174.933594 C 155.703125 174.1875 154.949219 173.5 154.144531 172.863281 C 153.339844 172.230469 152.496094 171.660156 151.605469 171.148438 C 150.714844 170.636719 149.792969 170.195312 148.835938 169.820312 C 147.882812 169.441406 146.902344 169.136719 145.902344 168.90625 Z M 145.902344 168.90625" fill="#f18642"/><path fill-rule="nonzero" fill-opacity="1" d="M 128.171875 186.054688 C 128.371094 185.214844 128.652344 184.402344 129.015625 183.613281 C 129.378906 182.828125 129.816406 182.082031 130.324219 181.382812 C 130.835938 180.679688 131.410156 180.035156 132.046875 179.445312 C 132.683594 178.855469 133.375 178.332031 134.117188 177.878906 C 134.859375 177.421875 135.640625 177.042969 136.457031 176.738281 C 137.273438 176.4375 138.113281 176.214844 138.976562 176.074219 C 139.835938 175.933594 140.703125 175.878906 141.578125 175.90625 C 142.449219 175.9375 143.3125 176.050781 144.160156 176.246094 L 145.902344 168.90625 C 144.902344 168.671875 143.886719 168.515625 142.863281 168.429688 C 141.835938 168.34375 140.8125 168.335938 139.785156 168.402344 C 138.757812 168.464844 137.742188 168.605469 136.734375 168.820312 C 135.730469 169.03125 134.746094 169.316406 133.78125 169.675781 C 132.820312 170.03125 131.886719 170.457031 130.988281 170.953125 C 130.089844 171.445312 129.230469 172 128.414062 172.621094 C 127.59375 173.238281 126.828125 173.914062 126.113281 174.644531 C 125.394531 175.375 124.738281 176.152344 124.136719 176.980469 C 123.535156 177.808594 123 178.671875 122.53125 179.578125 C 122.058594 180.484375 121.65625 181.417969 121.324219 182.382812 C 120.992188 183.34375 120.734375 184.328125 120.546875 185.328125 C 120.363281 186.332031 120.25 187.339844 120.214844 188.359375 C 120.179688 189.375 120.222656 190.390625 120.335938 191.402344 C 120.453125 192.414062 120.644531 193.414062 120.910156 194.394531 C 121.171875 195.378906 121.507812 196.339844 121.917969 197.273438 C 122.324219 198.210938 122.800781 199.109375 123.339844 199.976562 L 129.816406 196.003906 C 128.882812 194.519531 128.277344 192.914062 127.992188 191.191406 C 127.707031 189.46875 127.765625 187.753906 128.171875 186.054688 Z M 128.171875 186.054688" fill="#f5b86f"/><g clip-path="url(#47dffe76d2)"><path fill-rule="nonzero" fill-opacity="1" d="M 144.820312 172.652344 L 146.082031 166.390625 L 149.773438 170.328125 L 153.460938 174.269531 L 148.511719 176.589844 L 143.554688 178.914062 Z M 144.820312 172.652344" fill="#f5b86f"/></g><path fill-rule="nonzero" fill-opacity="1" d="M 150.136719 203.265625 L 153.503906 208.710938 L 142.683594 207.890625 L 144.726562 202.855469 L 146.769531 197.816406 Z M 150.136719 203.265625" fill="#f18642"/><path fill-rule="nonzero" fill-opacity="1" d="M 126.683594 198.035156 L 121.058594 201.160156 L 121.671875 195.824219 L 122.289062 190.488281 L 127.296875 192.699219 L 132.304688 194.902344 Z M 126.683594 198.035156" fill="#ef6843"/><g fill-opacity="1" fill="#00498f"><g transform="translate(66.122563, 207.999736)"><g><path d="M 24.921875 -29.421875 L 9.671875 -29.421875 L 9.671875 -20.65625 L 22.234375 -20.65625 L 22.234375 -14.984375 L 9.671875 -14.984375 L 9.671875 0 L 3.03125 0 L 3.03125 -35.453125 L 24.921875 -35.453125 Z M 24.921875 -29.421875"/></g></g></g><g fill-opacity="1" fill="#00498f"><g transform="translate(92.813273, 207.999736)"><g><path d="M 9.671875 -6.125 L 24.046875 -6.125 L 24.046875 0 L 3.03125 0 L 3.03125 -35.453125 L 9.671875 -35.453125 Z M 9.671875 -6.125"/></g></g></g><g fill-opacity="1" fill="#00498f"><g transform="translate(162.867913, 207.999736)"><g><path d="M 26.84375 -35.453125 L 26.84375 -29.328125 L 17.71875 -29.328125 L 17.71875 0 L 11.09375 0 L 11.09375 -29.328125 L 2.03125 -29.328125 L 2.03125 -35.453125 Z M 26.84375 -35.453125"/></g></g></g><g fill-opacity="1" fill="#00498f"><g transform="translate(191.736419, 207.999736)"><g><path d="M 15.1875 0.5 C 13.664062 0.5 12.101562 0.222656 10.5 -0.328125 C 8.90625 -0.890625 7.421875 -1.734375 6.046875 -2.859375 C 4.679688 -3.992188 3.566406 -5.410156 2.703125 -7.109375 C 1.847656 -8.816406 1.421875 -10.816406 1.421875 -13.109375 C 1.421875 -15.410156 1.847656 -17.421875 2.703125 -19.140625 C 3.566406 -20.859375 4.679688 -22.285156 6.046875 -23.421875 C 7.421875 -24.554688 8.90625 -25.410156 10.5 -25.984375 C 12.101562 -26.554688 13.664062 -26.84375 15.1875 -26.84375 C 16.707031 -26.84375 18.269531 -26.554688 19.875 -25.984375 C 21.476562 -25.410156 22.960938 -24.554688 24.328125 -23.421875 C 25.703125 -22.285156 26.816406 -20.859375 27.671875 -19.140625 C 28.535156 -17.421875 28.96875 -15.410156 28.96875 -13.109375 C 28.96875 -10.816406 28.535156 -8.816406 27.671875 -7.109375 C 26.816406 -5.410156 25.703125 -3.992188 24.328125 -2.859375 C 22.960938 -1.734375 21.476562 -0.890625 19.875 -0.328125 C 18.269531 0.222656 16.707031 0.5 15.1875 0.5 Z M 15.1875 -5.265625 C 16.40625 -5.265625 17.585938 -5.554688 18.734375 -6.140625 C 19.878906 -6.734375 20.820312 -7.613281 21.5625 -8.78125 C 22.3125 -9.945312 22.6875 -11.390625 22.6875 -13.109375 C 22.6875 -14.867188 22.3125 -16.335938 21.5625 -17.515625 C 20.820312 -18.703125 19.878906 -19.585938 18.734375 -20.171875 C 17.585938 -20.765625 16.40625 -21.0625 15.1875 -21.0625 C 14.007812 -21.0625 12.84375 -20.765625 11.6875 -20.171875 C 10.539062 -19.585938 9.597656 -18.703125 8.859375 -17.515625 C 8.117188 -16.335938 7.75 -14.867188 7.75 -13.109375 C 7.75 -11.390625 8.117188 -9.945312 8.859375 -8.78125 C 9.597656 -7.613281 10.539062 -6.734375 11.6875 -6.140625 C 12.84375 -5.554688 14.007812 -5.265625 15.1875 -5.265625 Z M 15.1875 -5.265625"/></g></g></g><g fill-opacity="1" fill="#00498f"><g transform="translate(222.174966, 207.999736)"><g><path d="M 18.4375 -26.734375 C 18.769531 -26.734375 19.078125 -26.734375 19.359375 -26.734375 C 19.648438 -26.734375 19.945312 -26.703125 20.25 -26.640625 L 20.25 -20.40625 C 19.976562 -20.476562 19.695312 -20.515625 19.40625 -20.515625 C 19.125 -20.515625 18.867188 -20.515625 18.640625 -20.515625 C 17.015625 -20.515625 15.519531 -20.148438 14.15625 -19.421875 C 12.789062 -18.691406 11.664062 -17.664062 10.78125 -16.34375 C 9.90625 -15.03125 9.382812 -13.484375 9.21875 -11.703125 L 9.21875 0 L 2.6875 0 L 2.6875 -26.328125 L 9.21875 -26.328125 L 9.21875 -19.703125 C 9.789062 -21.691406 10.859375 -23.359375 12.421875 -24.703125 C 13.992188 -26.054688 16 -26.734375 18.4375 -26.734375 Z M 18.4375 -26.734375"/></g></g></g><g fill-opacity="1" fill="#00498f"><g transform="translate(243.952966, 207.999736)"><g><path d="M 15.140625 0.5 C 13.648438 0.5 12.101562 0.222656 10.5 -0.328125 C 8.90625 -0.890625 7.421875 -1.734375 6.046875 -2.859375 C 4.679688 -3.992188 3.566406 -5.410156 2.703125 -7.109375 C 1.847656 -8.816406 1.421875 -10.816406 1.421875 -13.109375 C 1.421875 -15.410156 1.847656 -17.421875 2.703125 -19.140625 C 3.566406 -20.859375 4.679688 -22.285156 6.046875 -23.421875 C 7.421875 -24.554688 8.90625 -25.410156 10.5 -25.984375 C 12.101562 -26.554688 13.648438 -26.84375 15.140625 -26.84375 C 17.535156 -26.84375 19.703125 -26.316406 21.640625 -25.265625 C 23.585938 -24.222656 25.171875 -22.640625 26.390625 -20.515625 L 21.421875 -18.1875 C 20.679688 -19.0625 19.835938 -19.757812 18.890625 -20.28125 C 17.941406 -20.800781 16.707031 -21.0625 15.1875 -21.0625 C 14.007812 -21.0625 12.84375 -20.765625 11.6875 -20.171875 C 10.539062 -19.585938 9.597656 -18.703125 8.859375 -17.515625 C 8.117188 -16.335938 7.75 -14.867188 7.75 -13.109375 C 7.75 -11.390625 8.117188 -9.945312 8.859375 -8.78125 C 9.597656 -7.613281 10.539062 -6.734375 11.6875 -6.140625 C 12.84375 -5.554688 14.007812 -5.265625 15.1875 -5.265625 C 16.707031 -5.265625 17.941406 -5.523438 18.890625 -6.046875 C 19.835938 -6.578125 20.679688 -7.265625 21.421875 -8.109375 L 26.484375 -5.765625 C 25.234375 -3.640625 23.628906 -2.0625 21.671875 -1.03125 C 19.710938 -0.0078125 17.535156 0.5 15.140625 0.5 Z M 15.140625 0.5"/></g></g></g><g fill-opacity="1" fill="#00498f"><g transform="translate(271.960476, 207.999736)"><g><path d="M 17.921875 -26.84375 C 19.546875 -26.84375 21.109375 -26.441406 22.609375 -25.640625 C 24.109375 -24.847656 25.335938 -23.597656 26.296875 -21.890625 C 27.265625 -20.191406 27.75 -17.957031 27.75 -15.1875 L 27.75 0 L 21.21875 0 L 21.21875 -14.78125 C 21.21875 -17.082031 20.644531 -18.710938 19.5 -19.671875 C 18.351562 -20.628906 17.035156 -21.109375 15.546875 -21.109375 C 14.234375 -21.109375 13.101562 -20.769531 12.15625 -20.09375 C 11.207031 -19.425781 10.488281 -18.660156 10 -17.796875 C 9.507812 -16.941406 9.25 -16.191406 9.21875 -15.546875 L 9.21875 0 L 2.6875 0 L 2.6875 -35.796875 L 9.21875 -35.796875 L 9.21875 -21.171875 C 9.351562 -21.535156 9.628906 -22.03125 10.046875 -22.65625 C 10.472656 -23.28125 11.039062 -23.910156 11.75 -24.546875 C 12.457031 -25.191406 13.328125 -25.734375 14.359375 -26.171875 C 15.390625 -26.617188 16.578125 -26.84375 17.921875 -26.84375 Z M 17.921875 -26.84375"/></g></g></g></svg>